<svg width="52" height="48" viewBox="0 0 52 48" fill="none" xmlns="http://www.w3.org/2000/svg">
<ellipse cx="26" cy="23.5102" rx="26" ry="23.5102" fill="white"/>
<path d="M23.8165 14.3965L20.3845 26.8765L19.2405 22.1965C20.7311 22.1965 21.9445 22.6298 22.8805 23.4965C23.8165 24.3631 24.2845 25.5591 24.2845 27.0845C24.2845 28.5751 23.7991 29.7885 22.8285 30.7245C21.8925 31.6258 20.7138 32.0765 19.2925 32.0765C17.8365 32.0765 16.6231 31.6258 15.6525 30.7245C14.7165 29.7885 14.2485 28.5751 14.2485 27.0845C14.2485 26.6338 14.2831 26.2005 14.3525 25.7845C14.4218 25.3338 14.5605 24.8138 14.7685 24.2245C14.9765 23.6351 15.2711 22.8551 15.6525 21.8845L18.6685 14.3965H23.8165ZM36.0885 14.3965L32.6565 26.8765L31.5125 22.1965C33.0031 22.1965 34.2165 22.6298 35.1525 23.4965C36.0885 24.3631 36.5565 25.5591 36.5565 27.0845C36.5565 28.5751 36.0711 29.7885 35.1005 30.7245C34.1645 31.6258 32.9858 32.0765 31.5645 32.0765C30.1085 32.0765 28.8951 31.6258 27.9245 30.7245C26.9885 29.7885 26.5205 28.5751 26.5205 27.0845C26.5205 26.6338 26.5551 26.2005 26.6245 25.7845C26.6938 25.3338 26.8325 24.8138 27.0405 24.2245C27.2485 23.6351 27.5431 22.8551 27.9245 21.8845L30.9405 14.3965H36.0885Z" fill="#FF5D5D"/>
</svg>
