<svg width="620" height="88" viewBox="0 0 620 88" fill="none" xmlns="http://www.w3.org/2000/svg">
<path d="M46.0201 66H62.0641L40.7281 10.728H23.5921L2.25613 66H16.3681L20.1481 54.744H42.2401L46.0201 66ZM23.0041 46.176L31.0681 21.984H31.2361L39.3841 46.176H23.0041ZM67.28 66H80.216L79.88 23.16H79.964L105.08 66H121.376V10.728H108.44L108.86 47.856H108.776L87.104 10.728H67.28V66ZM157.36 66.84C174.076 66.84 187.012 56.172 187.012 38.112C187.012 20.388 174.076 9.888 157.36 9.888C140.644 9.888 127.708 20.388 127.708 38.112C127.708 56.172 140.644 66.84 157.36 66.84ZM157.36 56.004C148.624 56.004 141.988 49.368 141.988 38.196C141.988 27.192 148.624 20.724 157.36 20.724C166.096 20.724 172.732 27.192 172.732 38.196C172.732 49.368 166.096 56.004 157.36 56.004ZM193.28 66H206.216L205.88 23.16H205.964L231.08 66H247.376V10.728H234.44L234.86 47.856H234.776L213.104 10.728H193.28V66ZM297.427 66.84C317.167 66.84 322.459 58.44 322.459 49.032C322.459 43.824 320.359 39.876 316.411 37.776C313.135 36.012 308.431 35.004 302.215 33.996C297.511 33.24 291.715 32.316 289.615 31.392C287.683 30.552 286.927 29.04 286.927 26.352C286.927 22.656 290.119 19.884 297.595 19.884C305.155 19.884 308.431 23.328 308.431 29.628H320.611C320.611 17.196 314.899 9.888 297.343 9.888C281.383 9.888 273.235 17.112 273.235 27.528C273.235 32.82 275.083 36.684 278.611 38.952C281.803 41.052 287.347 42.144 292.807 42.984C297.427 43.656 303.139 44.496 305.575 45.336C307.759 46.092 308.767 47.604 308.767 49.956C308.767 53.484 306.667 56.844 297.343 56.844C288.103 56.844 285.667 52.98 285.667 47.016H273.403C273.403 57.18 278.443 66.84 297.427 66.84ZM356.848 66.84C372.052 66.84 382.552 58.272 382.552 45.588C382.552 44.916 382.552 43.992 382.468 42.9H370.372C370.456 43.824 370.456 44.328 370.456 44.664C370.456 51.636 365.584 56.004 357.52 56.004C348.616 56.004 341.98 49.452 341.98 38.448C341.98 27.528 348.448 20.724 357.52 20.724C364.996 20.724 370.288 25.008 370.288 32.484C370.288 32.904 370.288 33.744 370.204 34.668H382.216C382.3 33.912 382.384 32.4 382.384 31.14C382.384 18.456 371.968 9.888 356.848 9.888C339.796 9.888 327.7 20.472 327.7 38.448C327.7 56.256 339.796 66.84 356.848 66.84ZM389.263 66H403.039V10.728H389.263V66ZM410.991 66H450.891V55.164H424.767V42.396H444.423V33.996H424.767V21.564H450.135V10.728H410.991V66ZM456.6 66H469.536L469.2 23.16H469.284L494.4 66H510.696V10.728H497.76L498.18 47.856H498.096L476.424 10.728H456.6V66ZM546.176 66.84C561.38 66.84 571.88 58.272 571.88 45.588C571.88 44.916 571.88 43.992 571.796 42.9H559.7C559.784 43.824 559.784 44.328 559.784 44.664C559.784 51.636 554.912 56.004 546.848 56.004C537.944 56.004 531.308 49.452 531.308 38.448C531.308 27.528 537.776 20.724 546.848 20.724C554.324 20.724 559.616 25.008 559.616 32.484C559.616 32.904 559.616 33.744 559.532 34.668H571.544C571.628 33.912 571.712 32.4 571.712 31.14C571.712 18.456 561.296 9.888 546.176 9.888C529.124 9.888 517.028 20.472 517.028 38.448C517.028 56.256 529.124 66.84 546.176 66.84ZM578.171 66H618.071V55.164H591.947V42.396H611.603V33.996H591.947V21.564H617.315V10.728H578.171V66Z" fill="#242529"/>
<ellipse cx="158" cy="38" rx="26" ry="18" fill="#FF5D5D"/>
<circle cx="158" cy="38" r="12" fill="white"/>
</svg>
