<svg width="600" height="510" viewBox="0 0 600 510" fill="none" xmlns="http://www.w3.org/2000/svg">
<path d="M107.6 144H145.8L95 12.4H54.2L3.4 144H37L46 117.2H98.6L107.6 144ZM52.8 96.8L72 39.2H72.4L91.8 96.8H52.8ZM158.219 144H189.019L188.219 42H188.419L248.219 144H287.019V12.4H256.219L257.219 100.8H257.019L205.419 12.4H158.219V144ZM372.694 146C412.494 146 443.294 120.6 443.294 77.6C443.294 35.4 412.494 10.4 372.694 10.4C332.894 10.4 302.094 35.4 302.094 77.6C302.094 120.6 332.894 146 372.694 146ZM372.694 120.2C351.894 120.2 336.094 104.4 336.094 77.8C336.094 51.6 351.894 36.2 372.694 36.2C393.494 36.2 409.294 51.6 409.294 77.8C409.294 104.4 393.494 120.2 372.694 120.2ZM458.219 144H489.019L488.219 42H488.419L548.219 144H587.019V12.4H556.219L557.219 100.8H557.019L505.419 12.4H458.219V144ZM58 329C91.6 329 110.8 309.2 110.8 269V195.4H78V272.2C78 293.2 69.2 303.2 57 303.2C42.6 303.2 36.4 292.6 36.4 276C36.4 270 36.6 262.2 36.6 258H8.2C8 262.4 7.6 270.8 7.6 277.4C7.6 310.4 24 329 58 329ZM195.545 329C235.345 329 266.145 303.6 266.145 260.6C266.145 218.4 235.345 193.4 195.545 193.4C155.745 193.4 124.945 218.4 124.945 260.6C124.945 303.6 155.745 329 195.545 329ZM195.545 303.2C174.745 303.2 158.945 287.4 158.945 260.8C158.945 234.6 174.745 219.2 195.545 219.2C216.345 219.2 232.145 234.6 232.145 260.8C232.145 287.4 216.345 303.2 195.545 303.2ZM340.87 329C377.67 329 401.27 309.6 401.27 276V195.4H372.27V274.8C372.27 292.8 360.07 301.8 342.67 301.8C325.27 301.8 313.07 292.8 313.07 274.8V195.4H280.27V276C280.27 309.6 304.07 329 340.87 329ZM418.375 327H451.175V278H482.975C495.375 278 499.775 283.2 499.775 295.2V327H532.575V294.2C532.575 279.4 526.775 269 513.775 266V265.6C526.175 262 533.375 251.4 533.375 234.6C533.375 209.8 514.575 195.4 479.775 195.4H418.375V327ZM451.175 258.2V221.2H479.575C494.775 221.2 501.975 228.2 501.975 239.8C501.975 252 494.975 258.2 481.175 258.2H451.175ZM9 510H39.8L39 408H39.2L99 510H137.8V378.4H107L108 466.8H107.8L56.2 378.4H9V510ZM254.475 510H292.675L241.875 378.4H201.075L150.275 510H183.875L192.875 483.2H245.475L254.475 510ZM199.675 462.8L218.875 405.2H219.275L238.675 462.8H199.675ZM305.094 510H397.894V484.2H337.894V378.4H305.094V510Z" fill="#242529"/>
<ellipse cx="373" cy="77" rx="58" ry="44" fill="#F3F3F3"/>
<circle cx="373" cy="77" r="38" fill="#FF5D5D"/>
</svg>
