<svg width="995" height="549" viewBox="0 0 995 549" fill="none" xmlns="http://www.w3.org/2000/svg">
<path d="M9 144H66.2C105.4 144 130 121.4 130 78C130 34.8 104 12.4 62 12.4H9V144ZM41.8 118.2V38.2H63.8C83.2 38.2 97.4 49.8 97.4 78C97.4 105.8 84 118.2 65.8 118.2H41.8ZM145.938 144H178.738V12.4H145.938V144ZM252.672 146C299.672 146 312.272 126 312.272 103.6C312.272 91.2 307.272 81.8 297.872 76.8C290.072 72.6 278.872 70.2 264.072 67.8C252.872 66 239.072 63.8 234.072 61.6C229.472 59.6 227.672 56 227.672 49.6C227.672 40.8 235.272 34.2 253.072 34.2C271.072 34.2 278.872 42.4 278.872 57.4H307.872C307.872 27.8 294.272 10.4 252.472 10.4C214.472 10.4 195.072 27.6 195.072 52.4C195.072 65 199.472 74.2 207.872 79.6C215.472 84.6 228.672 87.2 241.672 89.2C252.672 90.8 266.272 92.8 272.072 94.8C277.272 96.6 279.672 100.2 279.672 105.8C279.672 114.2 274.672 122.2 252.472 122.2C230.472 122.2 224.672 113 224.672 98.8H195.472C195.472 123 207.472 146 252.672 146ZM394.15 146C430.35 146 455.35 125.6 455.35 95.4C455.35 93.8 455.35 91.6 455.15 89H426.35C426.55 91.2 426.55 92.4 426.55 93.2C426.55 109.8 414.95 120.2 395.75 120.2C374.55 120.2 358.75 104.6 358.75 78.4C358.75 52.4 374.15 36.2 395.75 36.2C413.55 36.2 426.15 46.4 426.15 64.2C426.15 65.2 426.15 67.2 425.95 69.4H454.55C454.75 67.6 454.95 64 454.95 61C454.95 30.8 430.15 10.4 394.15 10.4C353.55 10.4 324.75 35.6 324.75 78.4C324.75 120.8 353.55 146 394.15 146ZM537.928 146C577.728 146 608.528 120.6 608.528 77.6C608.528 35.4 577.728 10.4 537.928 10.4C498.128 10.4 467.328 35.4 467.328 77.6C467.328 120.6 498.128 146 537.928 146ZM537.928 120.2C517.128 120.2 501.328 104.4 501.328 77.8C501.328 51.6 517.128 36.2 537.928 36.2C558.728 36.2 574.528 51.6 574.528 77.8C574.528 104.4 558.728 120.2 537.928 120.2ZM659.259 144H700.059L750.259 12.4H716.659L682.259 114.8H681.859L646.659 12.4H609.259L659.259 144ZM762.516 144H857.516V118.2H795.316V87.8H842.116V67.8H795.316V38.2H855.716V12.4H762.516V144ZM871.109 144H903.909V95H935.709C948.109 95 952.509 100.2 952.509 112.2V144H985.309V111.2C985.309 96.4 979.509 86 966.509 83V82.6C978.909 79 986.109 68.4 986.109 51.6C986.109 26.8 967.309 12.4 932.509 12.4H871.109V144ZM903.909 75.2V38.2H932.309C947.509 38.2 954.709 45.2 954.709 56.8C954.709 69 947.709 75.2 933.909 75.2H903.909ZM107.6 327H145.8L95 195.4H54.2L3.4 327H37L46 300.2H98.6L107.6 327ZM52.8 279.8L72 222.2H72.4L91.8 279.8H52.8ZM158.219 327H189.019L188.219 225H188.419L248.219 327H287.019V195.4H256.219L257.219 283.8H257.019L205.419 195.4H158.219V327ZM372.694 329C412.494 329 443.294 303.6 443.294 260.6C443.294 218.4 412.494 193.4 372.694 193.4C332.894 193.4 302.094 218.4 302.094 260.6C302.094 303.6 332.894 329 372.694 329ZM372.694 303.2C351.894 303.2 336.094 287.4 336.094 260.8C336.094 234.6 351.894 219.2 372.694 219.2C393.494 219.2 409.294 234.6 409.294 260.8C409.294 287.4 393.494 303.2 372.694 303.2ZM458.219 327H489.019L488.219 225H488.419L548.219 327H587.019V195.4H556.219L557.219 283.8H557.019L505.419 195.4H458.219V327ZM58 512C91.6 512 110.8 492.2 110.8 452V378.4H78V455.2C78 476.2 69.2 486.2 57 486.2C42.6 486.2 36.4 475.6 36.4 459C36.4 453 36.6 445.2 36.6 441H8.2C8 445.4 7.6 453.8 7.6 460.4C7.6 493.4 24 512 58 512ZM195.545 512C235.345 512 266.145 486.6 266.145 443.6C266.145 401.4 235.345 376.4 195.545 376.4C155.745 376.4 124.945 401.4 124.945 443.6C124.945 486.6 155.745 512 195.545 512ZM195.545 486.2C174.745 486.2 158.945 470.4 158.945 443.8C158.945 417.6 174.745 402.2 195.545 402.2C216.345 402.2 232.145 417.6 232.145 443.8C232.145 470.4 216.345 486.2 195.545 486.2ZM340.87 512C377.67 512 401.27 492.6 401.27 459V378.4H372.27V457.8C372.27 475.8 360.07 484.8 342.67 484.8C325.27 484.8 313.07 475.8 313.07 457.8V378.4H280.27V459C280.27 492.6 304.07 512 340.87 512ZM418.375 510H451.175V461H482.975C495.375 461 499.775 466.2 499.775 478.2V510H532.575V477.2C532.575 462.4 526.775 452 513.775 449V448.6C526.175 445 533.375 434.4 533.375 417.6C533.375 392.8 514.575 378.4 479.775 378.4H418.375V510ZM451.175 441.2V404.2H479.575C494.775 404.2 501.975 411.2 501.975 422.8C501.975 435 494.975 441.2 481.175 441.2H451.175ZM550.406 510H581.206L580.406 408H580.606L640.406 510H679.206V378.4H648.406L649.406 466.8H649.206L597.606 378.4H550.406V510ZM795.881 510H834.081L783.281 378.4H742.481L691.681 510H725.281L734.281 483.2H786.881L795.881 510ZM741.081 462.8L760.281 405.2H760.681L780.081 462.8H741.081ZM846.5 510H939.3V484.2H879.3V378.4H846.5V510Z" fill="#242529"/>
</svg>
